<?xml version="1.0" encoding="UTF-8" standalone="no"?>
<svg
   xmlns:dc="http://purl.org/dc/elements/1.1/"
   xmlns:cc="http://creativecommons.org/ns#"
   xmlns:rdf="http://www.w3.org/1999/02/22-rdf-syntax-ns#"
   xmlns:svg="http://www.w3.org/2000/svg"
   xmlns="http://www.w3.org/2000/svg"
   xmlns:xlink="http://www.w3.org/1999/xlink"
   xmlns:sodipodi="http://sodipodi.sourceforge.net/DTD/sodipodi-0.dtd"
   xmlns:inkscape="http://www.inkscape.org/namespaces/inkscape"
   width="600"
   height="480"
   viewBox="0 0 600 480"
   id="svg4642"
   version="1.1"
   inkscape:version="0.48.3.1 r9886"
   sodipodi:docname="allcapacity.pdf">
  <metadata
     id="metadata4816">
    <rdf:RDF>
      <cc:Work
         rdf:about="">
        <dc:format>image/svg+xml</dc:format>
        <dc:type
           rdf:resource="http://purl.org/dc/dcmitype/StillImage" />
        <dc:title></dc:title>
      </cc:Work>
    </rdf:RDF>
  </metadata>
  <sodipodi:namedview
     pagecolor="#ffffff"
     bordercolor="#666666"
     borderopacity="1"
     objecttolerance="10"
     gridtolerance="10"
     guidetolerance="10"
     inkscape:pageopacity="0"
     inkscape:pageshadow="2"
     inkscape:window-width="753"
     inkscape:window-height="480"
     id="namedview4814"
     showgrid="false"
     inkscape:zoom="0.49166667"
     inkscape:cx="300"
     inkscape:cy="240"
     inkscape:window-x="2169"
     inkscape:window-y="566"
     inkscape:window-maximized="0"
     inkscape:current-layer="a4800" />
  <desc
     id="desc4644">Produced by GNUPLOT 4.4 patchlevel 3 </desc>
  <defs
     id="defs4646">
    <circle
       id="gpDot"
       r="0.5"
       stroke-width="0.5" />
    <path
       id="gpPt0"
       stroke-width="0.222"
       stroke="currentColor"
       d="M-1,0 h2 M0,-1 v2" />
    <path
       id="gpPt1"
       stroke-width="0.222"
       stroke="currentColor"
       d="M-1,-1 L1,1 M1,-1 L-1,1" />
    <path
       id="gpPt2"
       stroke-width="0.222"
       stroke="currentColor"
       d="M-1,0 L1,0 M0,-1 L0,1 M-1,-1 L1,1 M-1,1 L1,-1" />
    <rect
       id="gpPt3"
       stroke-width="0.222"
       stroke="currentColor"
       x="-1"
       y="-1"
       width="2"
       height="2" />
    <rect
       id="gpPt4"
       stroke-width="0.222"
       stroke="currentColor"
       fill="currentColor"
       x="-1"
       y="-1"
       width="2"
       height="2" />
    <circle
       id="gpPt5"
       stroke-width="0.222"
       stroke="currentColor"
       cx="0"
       cy="0"
       r="1" />
    <use
       xlink:href="#gpPt5"
       id="gpPt6"
       fill="currentColor"
       stroke="none" />
    <path
       id="gpPt7"
       stroke-width="0.222"
       stroke="currentColor"
       d="M0,-1.33 L-1.33,0.67 L1.33,0.67 z" />
    <use
       xlink:href="#gpPt7"
       id="gpPt8"
       fill="currentColor"
       stroke="none" />
    <use
       xlink:href="#gpPt7"
       id="gpPt9"
       stroke="currentColor"
       transform="rotate(180)" />
    <use
       xlink:href="#gpPt9"
       id="gpPt10"
       fill="currentColor"
       stroke="none" />
    <use
       xlink:href="#gpPt3"
       id="gpPt11"
       stroke="currentColor"
       transform="rotate(45)" />
    <use
       xlink:href="#gpPt11"
       id="gpPt12"
       fill="currentColor"
       stroke="none" />
  </defs>
  <g
     style="fill:none; color:white; stroke:currentColor; stroke-width:1.00; stroke-linecap:butt; stroke-linejoin:miter"
     id="g4662" />
  <g
     style="fill:none; color:black; stroke:currentColor; stroke-width:1.00; stroke-linecap:butt; stroke-linejoin:miter"
     id="g4664" />
  <g
     style="fill:none; color:gray; stroke:currentColor; stroke-width:1.00; stroke-linecap:butt; stroke-linejoin:miter"
     id="g4666">
    <path
       d="M80.2,380.3 L566.0,380.3 "
       id="path4668" />
  </g>
  <g
     style="fill:none; color:black; stroke:currentColor; stroke-width:1.00; stroke-linecap:butt; stroke-linejoin:miter"
     id="g4670">
    <path
       d="M80.2,380.3 L89.2,380.3 M566.0,380.3 L557.0,380.3 "
       id="path4672" />
    <g
       transform="translate(71.9,384.8)"
       style="stroke:none; fill:black; font-family:Arial; font-size:12.00pt; text-anchor:end"
       id="g4674">
      <text
         id="text4676"> 0</text>
    </g>
  </g>
  <g
     style="fill:none; color:gray; stroke:currentColor; stroke-width:1.00; stroke-linecap:butt; stroke-linejoin:miter"
     id="g4678">
    <path
       d="M80.2,314.7 L566.0,314.7 "
       id="path4680" />
  </g>
  <g
     style="fill:none; color:black; stroke:currentColor; stroke-width:1.00; stroke-linecap:butt; stroke-linejoin:miter"
     id="g4682">
    <path
       d="M80.2,314.7 L89.2,314.7 M566.0,314.7 L557.0,314.7 "
       id="path4684" />
    <g
       transform="translate(71.9,319.2)"
       style="stroke:none; fill:black; font-family:Arial; font-size:12.00pt; text-anchor:end"
       id="g4686">
      <text
         id="text4688"> 500</text>
    </g>
  </g>
  <g
     style="fill:none; color:gray; stroke:currentColor; stroke-width:1.00; stroke-linecap:butt; stroke-linejoin:miter"
     id="g4690">
    <path
       d="M80.2,249.0 L566.0,249.0 "
       id="path4692" />
  </g>
  <g
     style="fill:none; color:black; stroke:currentColor; stroke-width:1.00; stroke-linecap:butt; stroke-linejoin:miter"
     id="g4694">
    <path
       d="M80.2,249.0 L89.2,249.0 M566.0,249.0 L557.0,249.0 "
       id="path4696" />
    <g
       transform="translate(71.9,253.5)"
       style="stroke:none; fill:black; font-family:Arial; font-size:12.00pt; text-anchor:end"
       id="g4698">
      <text
         id="text4700"> 1000</text>
    </g>
  </g>
  <g
     style="fill:none; color:gray; stroke:currentColor; stroke-width:1.00; stroke-linecap:butt; stroke-linejoin:miter"
     id="g4702">
    <path
       d="M80.2,183.4 L566.0,183.4 "
       id="path4704" />
  </g>
  <g
     style="fill:none; color:black; stroke:currentColor; stroke-width:1.00; stroke-linecap:butt; stroke-linejoin:miter"
     id="g4706">
    <path
       d="M80.2,183.4 L89.2,183.4 M566.0,183.4 L557.0,183.4 "
       id="path4708" />
    <g
       transform="translate(71.9,187.9)"
       style="stroke:none; fill:black; font-family:Arial; font-size:12.00pt; text-anchor:end"
       id="g4710">
      <text
         id="text4712"> 1500</text>
    </g>
  </g>
  <g
     style="fill:none; color:gray; stroke:currentColor; stroke-width:1.00; stroke-linecap:butt; stroke-linejoin:miter"
     id="g4714">
    <path
       d="M80.2,117.8 L566.0,117.8 "
       id="path4716" />
  </g>
  <g
     style="fill:none; color:black; stroke:currentColor; stroke-width:1.00; stroke-linecap:butt; stroke-linejoin:miter"
     id="g4718">
    <path
       d="M80.2,117.8 L89.2,117.8 M566.0,117.8 L557.0,117.8 "
       id="path4720" />
    <g
       transform="translate(71.9,122.3)"
       style="stroke:none; fill:black; font-family:Arial; font-size:12.00pt; text-anchor:end"
       id="g4722">
      <text
         id="text4724"> 2000</text>
    </g>
  </g>
  <g
     style="fill:none; color:gray; stroke:currentColor; stroke-width:1.00; stroke-linecap:butt; stroke-linejoin:miter"
     id="g4726">
    <path
       d="M80.2,380.3 L80.2,117.8 "
       id="path4728" />
  </g>
  <g
     style="fill:none; color:black; stroke:currentColor; stroke-width:1.00; stroke-linecap:butt; stroke-linejoin:miter"
     id="g4730">
    <path
       d="M80.2,380.3 L80.2,371.3 M80.2,117.8 L80.2,126.8 "
       id="path4732" />
    <g
       transform="translate(80.2,402.8)"
       style="stroke:none; fill:black; font-family:Arial; font-size:12.00pt; text-anchor:middle"
       id="g4734">
      <text
         id="text4736">0:00</text>
    </g>
  </g>
  <g
     style="fill:none; color:gray; stroke:currentColor; stroke-width:1.00; stroke-linecap:butt; stroke-linejoin:miter"
     id="g4738">
    <path
       d="M225.9,380.3 L225.9,117.8 "
       id="path4740" />
  </g>
  <g
     style="fill:none; color:black; stroke:currentColor; stroke-width:1.00; stroke-linecap:butt; stroke-linejoin:miter"
     id="g4742">
    <path
       d="M225.9,380.3 L225.9,371.3 M225.9,117.8 L225.9,126.8 "
       id="path4744" />
    <g
       transform="translate(225.9,402.8)"
       style="stroke:none; fill:black; font-family:Arial; font-size:12.00pt; text-anchor:middle"
       id="g4746">
      <text
         id="text4748">0:30</text>
    </g>
  </g>
  <g
     style="fill:none; color:gray; stroke:currentColor; stroke-width:1.00; stroke-linecap:butt; stroke-linejoin:miter"
     id="g4750">
    <path
       d="M371.7,380.3 L371.7,117.8 "
       id="path4752" />
  </g>
  <g
     style="fill:none; color:black; stroke:currentColor; stroke-width:1.00; stroke-linecap:butt; stroke-linejoin:miter"
     id="g4754">
    <path
       d="M371.7,380.3 L371.7,371.3 M371.7,117.8 L371.7,126.8 "
       id="path4756" />
    <g
       transform="translate(371.7,402.8)"
       style="stroke:none; fill:black; font-family:Arial; font-size:12.00pt; text-anchor:middle"
       id="g4758">
      <text
         id="text4760">1:00</text>
    </g>
  </g>
  <g
     style="fill:none; color:gray; stroke:currentColor; stroke-width:1.00; stroke-linecap:butt; stroke-linejoin:miter"
     id="g4762">
    <path
       d="M517.4,380.3 L517.4,117.8 "
       id="path4764" />
  </g>
  <g
     style="fill:none; color:black; stroke:currentColor; stroke-width:1.00; stroke-linecap:butt; stroke-linejoin:miter"
     id="g4766">
    <path
       d="M517.4,380.3 L517.4,371.3 M517.4,117.8 L517.4,126.8 "
       id="path4768" />
    <g
       transform="translate(517.4,402.8)"
       style="stroke:none; fill:black; font-family:Arial; font-size:12.00pt; text-anchor:middle"
       id="g4770">
      <text
         id="text4772">1:30</text>
    </g>
    <path
       d="M80.2,117.8 L80.2,380.3 L566.0,380.3 L566.0,117.8 L80.2,117.8 Z "
       id="path4774" />
    <g
       transform="translate(17.6,249.1) rotate(270)"
       style="stroke:none; fill:black; font-family:Arial; font-size:12.00pt; text-anchor:middle"
       id="g4776">
      <text
         id="text4778">throughput (kbps)</text>
    </g>
    <g
       transform="translate(588.4,249.1) rotate(270)"
       style="stroke:none; fill:black; font-family:Arial; font-size:12.00pt; text-anchor:middle"
       id="g4780">
      <text
         id="text4782" />
    </g>
    <g
       transform="translate(323.1,426.2)"
       style="stroke:none; fill:black; font-family:Arial; font-size:12.00pt; text-anchor:middle"
       id="g4784">
      <text
         id="text4786" />
    </g>
    <g
       transform="translate(323.1,95.3)"
       style="stroke:none; fill:black; font-family:Arial; font-size:12.00pt; text-anchor:middle"
       id="g4788">
      <text
         id="text4790">Verizon LTE uplink throughput</text>
    </g>
    <g
       transform="translate(323.1,131.4)"
       style="stroke:none; fill:black; font-family:Arial; font-size:12.00pt; text-anchor:middle"
       id="g4792">
      <text
         id="text4794" />
    </g>
    <g
       transform="translate(22.1,411.8)"
       style="stroke:none; fill:black; font-family:Arial; font-size:12.00pt; text-anchor:start"
       id="g4796">
      <text
         id="text4798" />
    </g>
  </g>
  <a
     xlink:title="Plot #1"
     id="a4800">
    <g
       style="fill:none; color:white; stroke:currentColor; stroke-width:3.00; stroke-linecap:butt; stroke-linejoin:miter"
       id="g4802" />
    <g
       style="fill:none;color:#FF9900;stroke:#000000;stroke-width:3;stroke-linecap:butt;stroke-linejoin:miter;stroke-opacity:1"
       id="g4804">
      <path
         d="M80.2,202.6 L85.1,245.4 L89.9,286.1 L94.8,296.0 L99.6,285.6 L104.5,267.7 L109.3,255.9 L114.2,258.2    L119.1,284.4 L123.9,249.8 L128.8,298.2 L133.6,252.1 L138.5,234.2 L143.4,211.2 L148.2,204.3 L153.1,193.8    L157.9,245.8 L162.8,249.1 L167.6,244.4 L172.5,243.5 L177.4,267.1 L182.2,263.4 L187.1,274.3 L191.9,247.4    L196.8,252.7 L201.7,238.4 L206.5,240.3 L211.4,266.5 L216.2,285.4 L221.1,306.1 L225.9,302.3 L230.8,292.3    L235.7,294.1 L240.5,331.1 L245.4,330.7 L250.2,344.9 L255.1,351.6 L259.9,187.8 L264.8,193.3 L269.7,196.6    L274.5,167.7 L279.4,194.0 L284.2,221.4 L289.1,222.2 L294.0,246.8 L298.8,253.2 L303.7,226.2 L308.5,219.6    L313.4,228.2 L318.2,214.6 L323.1,288.2 L328.0,313.0 L332.8,272.8 L337.7,222.2 L342.5,225.6 L347.4,224.3    L352.2,285.3 L357.1,335.0 L362.0,365.9 L366.8,366.1 L371.7,368.9 L376.5,368.1 L381.4,358.8 L386.3,330.7    L391.1,360.2 L396.0,333.4 L400.8,331.1 L405.7,319.7 L410.5,317.9 L415.4,327.9 L420.3,319.3 L425.1,326.3    L430.0,306.3 L434.8,319.7 L439.7,337.6 L444.6,334.2 L449.4,315.7 L454.3,330.5 L459.1,341.3 L464.0,348.2    L468.8,243.7 L473.7,293.1 L478.6,344.1 L483.4,302.2 L488.3,360.8 L493.1,380.3 L498.0,356.5 L502.8,345.8    L507.7,369.5 L512.6,366.7 L517.4,297.4 L522.3,312.6 L527.1,298.4 L532.0,278.7 L536.9,246.0 L541.7,286.6    L546.6,275.8 L551.4,281.7 L556.3,317.5 L561.1,340.7 L566.0,328.7 "
         id="path4806"
         style="stroke:#000000;stroke-opacity:1" />
    </g>
  </a>
  <g
     style="fill:none; color:white; stroke:currentColor; stroke-width:1.00; stroke-linecap:butt; stroke-linejoin:miter"
     id="g4808" />
  <g
     style="fill:none; color:black; stroke:currentColor; stroke-width:1.00; stroke-linecap:butt; stroke-linejoin:miter"
     id="g4810">
    <path
       d="M80.2,117.8 L80.2,380.3 L566.0,380.3 L566.0,117.8 L80.2,117.8 Z "
       id="path4812" />
  </g>
</svg>
